<svg version="1.1" xmlns="http://www.w3.org/2000/svg" viewBox="0 0 2026.119887764311 998.1086168314109" width="2026.119887764311" height="998.1086168314109">
  <!-- svg-source:excalidraw -->
  
  <defs>
    <style class="style-fonts">
      @font-face {
        font-family: "Virgil";
        src: url("https://excalidraw.com/Virgil.woff2");
      }
      @font-face {
        font-family: "Cascadia";
        src: url("https://excalidraw.com/Cascadia.woff2");
      }
    </style>
  </defs>
  <g stroke-linecap="round" transform="translate(10 282.19476327102893) rotate(0 75.6877463497421 76.34022692172266)"><path d="M-0.95 0.08 C50.31 -0.82, 102.1 -0.79, 153.36 0.39 M-0.05 -0.61 C41.55 0.79, 80.7 0.91, 151.7 0.97 M150.86 1.44 C153.22 32.63, 152.33 63.12, 150.35 153.68 M150.9 -0.18 C151.51 58.57, 152.85 117.27, 151.48 153.56 M152.16 153.97 C121.5 152.18, 87.12 150.31, -0.74 152.29 M151.3 153.51 C105.46 152.04, 60.7 151.23, 0.93 153.33 M-0.31 152.24 C-0.53 106.62, -0.93 61.07, -0.8 -0.32 M0.92 152.73 C-0.93 120.45, -0.39 89.9, 0.92 0.98" stroke="#f08c00" stroke-width="1" fill="none"></path></g><g transform="translate(31.121080700328093 338.5349901927516) rotate(0 54.56666564941406 20)"><text x="54.56666564941406" y="0" font-family="Virgil, Segoe UI Emoji" font-size="16px" fill="#f08c00" text-anchor="middle" style="white-space: pre;" direction="ltr" dominant-baseline="text-before-edge">you send the </text><text x="54.56666564941406" y="20" font-family="Virgil, Segoe UI Emoji" font-size="16px" fill="#f08c00" text-anchor="middle" style="white-space: pre;" direction="ltr" dominant-baseline="text-before-edge">challenge</text></g><g mask="url(#mask-SNtmfHm6e_AV5rR41v4tp)" stroke-linecap="round"><g transform="translate(174.9520098653653 365.1911980932964) rotate(0 156.104705650244 -0.7227630982148412)"><path d="M1.34 -1.26 C67.99 -1.17, 133.61 -1.21, 312.11 -0.33 M-0.61 -0.62 C111.55 1.15, 222.38 0, 312.82 -1.71" stroke="#1e1e1e" stroke-width="1" fill="none"></path></g><g transform="translate(174.9520098653653 365.1911980932964) rotate(0 156.104705650244 -0.7227630982148412)"><path d="M286.67 7.21 C291.76 5.2, 295.46 3.37, 312.08 0.28 M283.93 8.12 C294.86 5.25, 303.93 0.69, 313.07 -1.67" stroke="#1e1e1e" stroke-width="1" fill="none"></path></g><g transform="translate(174.9520098653653 365.1911980932964) rotate(0 156.104705650244 -0.7227630982148412)"><path d="M286.36 -13.31 C291.63 -10.9, 295.39 -8.31, 312.08 0.28 M283.62 -12.4 C294.67 -7.95, 303.86 -5.19, 313.07 -1.67" stroke="#1e1e1e" stroke-width="1" fill="none"></path></g></g><mask id="mask-SNtmfHm6e_AV5rR41v4tp"><rect x="0" y="0" fill="#fff" width="587.5926495188825" height="466.9341431189123"></rect><rect x="243.33899534153795" y="354.31972558048847" fill="#000" width="175.86666870117188" height="20" opacity="1"></rect></mask><g transform="translate(243.33899534153795 354.31972558048847) rotate(0 87.71772017407136 10.1487094145931)"><text x="87.93333435058594" y="0" font-family="Virgil, Segoe UI Emoji" font-size="16px" fill="#1e1e1e" text-anchor="middle" style="white-space: pre;" direction="ltr" dominant-baseline="text-before-edge">got challenge response</text></g><g mask="url(#mask-PIRqhImpggz4j7YCOopMc)" stroke-linecap="round"><g transform="translate(168.3058342843434 444.4706506564994) rotate(0 105.58871604167518 52.62096255212737)"><path d="M-0.08 0.29 C80.41 40.64, 161.91 82.24, 211.25 104.76 M0.31 -0.33 C44.03 20.17, 87.85 40.73, 211.12 105.57" stroke="#1e1e1e" stroke-width="1" fill="none"></path></g><g transform="translate(168.3058342843434 444.4706506564994) rotate(0 105.58871604167518 52.62096255212737)"><path d="M181.28 102.03 C191.78 102.47, 203.84 105.7, 210.74 105.38 M181.73 101.29 C187.65 102.55, 194 102.06, 210.58 106.35" stroke="#1e1e1e" stroke-width="1" fill="none"></path></g><g transform="translate(168.3058342843434 444.4706506564994) rotate(0 105.58871604167518 52.62096255212737)"><path d="M190.74 83.82 C197.68 91.16, 206.13 101.36, 210.74 105.38 M191.19 83.08 C195.22 88.19, 199.62 91.46, 210.58 106.35" stroke="#1e1e1e" stroke-width="1" fill="none"></path></g></g><mask id="mask-PIRqhImpggz4j7YCOopMc"><rect x="0" y="0" fill="#fff" width="479.8732783303061" height="649.3867366657109"></rect><rect x="172.71455630732476" y="476.92869366110517" fill="#000" width="202.75" height="40" opacity="1"></rect></mask><g transform="translate(172.71455630732476 476.92869366110517) rotate(0 101.17999401869383 20.162919547521597)"><text x="101.375" y="0" font-family="Virgil, Segoe UI Emoji" font-size="16px" fill="#1e1e1e" text-anchor="middle" style="white-space: pre;" direction="ltr" dominant-baseline="text-before-edge">got a multi-packet data </text><text x="101.375" y="20" font-family="Virgil, Segoe UI Emoji" font-size="16px" fill="#1e1e1e" text-anchor="middle" style="white-space: pre;" direction="ltr" dominant-baseline="text-before-edge">response</text></g><g mask="url(#mask-koegsKbTDnwbbXujodZ5V)" stroke-linecap="round"><g transform="translate(175.05432062354112 272.02780406690636) rotate(0 101.17104863995286 -50.86941185054809)"><path d="M-1.14 -1.51 C47.94 -24.48, 95.26 -48.93, 201.53 -101.95 M0.84 0.21 C80.22 -41.87, 161.01 -81.85, 203.48 -100.65" stroke="#1e1e1e" stroke-width="1" fill="none"></path></g><g transform="translate(175.05432062354112 272.02780406690636) rotate(0 101.17104863995286 -50.86941185054809)"><path d="M180.93 -81.21 C188.36 -83.93, 193.03 -89.84, 201.9 -101.99 M183.24 -79.19 C190.18 -88.54, 199.19 -97.04, 204.19 -100.46" stroke="#1e1e1e" stroke-width="1" fill="none"></path></g><g transform="translate(175.05432062354112 272.02780406690636) rotate(0 101.17104863995286 -50.86941185054809)"><path d="M172.26 -99.81 C181.9 -98.23, 188.6 -99.79, 201.9 -101.99 M174.58 -97.8 C184.85 -99.86, 197.29 -101, 204.19 -100.46" stroke="#1e1e1e" stroke-width="1" fill="none"></path></g></g><mask id="mask-koegsKbTDnwbbXujodZ5V"><rect x="0" y="0" fill="#fff" width="477.9363225856928" height="472.83137802834494"></rect><rect x="172.7869857281521" y="201.62601708618718" fill="#000" width="207.4166717529297" height="40" opacity="1"></rect></mask><g transform="translate(172.7869857281521 201.62601708618718) rotate(0 103.43838353534187 19.53237513017109)"><text x="103.70833587646484" y="0" font-family="Virgil, Segoe UI Emoji" font-size="16px" fill="#1e1e1e" text-anchor="middle" style="white-space: pre;" direction="ltr" dominant-baseline="text-before-edge">got a single-packet data </text><text x="103.70833587646484" y="20" font-family="Virgil, Segoe UI Emoji" font-size="16px" fill="#1e1e1e" text-anchor="middle" style="white-space: pre;" direction="ltr" dominant-baseline="text-before-edge">response</text></g><g stroke-linecap="round" transform="translate(503.2915926428078 290.05598387091595) rotate(0 75.6877463497421 76.34022692172266)"><path d="M-1.66 0.18 C41.19 -0.33, 79.93 1.46, 150.96 0.57 M-0.94 -0.58 C48.82 -0.15, 96.99 -2, 152.15 0.02 M149.83 -0.66 C151.31 61.77, 148.39 119.31, 149.83 152.63 M150.69 0.62 C150.51 53.07, 150.12 104.37, 151.49 151.81 M151.91 151.4 C92.94 155.17, 38.9 151.99, -1.26 154.12 M150.56 153.54 C91.33 151.66, 32.51 151.51, 0.33 153.5 M-0.59 153.24 C0.48 119.13, 2.3 82.86, -1.35 -1 M0.45 153.22 C0.7 118.26, -0.41 81.81, -0.3 0.45" stroke="#1971c2" stroke-width="1" fill="none"></path></g><g transform="translate(524.4126733431359 346.3962107926386) rotate(0 54.56666564941406 20)"><text x="54.56666564941406" y="0" font-family="Virgil, Segoe UI Emoji" font-size="16px" fill="#1971c2" text-anchor="middle" style="white-space: pre;" direction="ltr" dominant-baseline="text-before-edge">you send the </text><text x="54.56666564941406" y="20" font-family="Virgil, Segoe UI Emoji" font-size="16px" fill="#1971c2" text-anchor="middle" style="white-space: pre;" direction="ltr" dominant-baseline="text-before-edge">query</text></g><g mask="url(#mask-dXa4dIGniwN0LtiQO-99Y)" stroke-linecap="round"><g transform="translate(672.4683873886673 334.07701206495017) rotate(0 160.86606250486022 -46.41001575688824)"><path d="M1.23 -0.19 C94.58 -29.75, 190.76 -57.13, 320.08 -92.63 M0.25 -0.45 C116.48 -32.22, 233.91 -65.23, 321.49 -92.5" stroke="#1e1e1e" stroke-width="1" fill="none"></path></g><g transform="translate(672.4683873886673 334.07701206495017) rotate(0 160.86606250486022 -46.41001575688824)"><path d="M299.27 -74.82 C302.9 -81.03, 311.22 -86.46, 320.15 -93.56 M297.81 -75.21 C305.33 -81.06, 314.44 -86.79, 322.23 -93.37" stroke="#1e1e1e" stroke-width="1" fill="none"></path></g><g transform="translate(672.4683873886673 334.07701206495017) rotate(0 160.86606250486022 -46.41001575688824)"><path d="M293.36 -94.47 C298.61 -94.89, 308.69 -94.48, 320.15 -93.56 M291.9 -94.86 C301.62 -93.49, 312.89 -92.05, 322.23 -93.37" stroke="#1e1e1e" stroke-width="1" fill="none"></path></g></g><mask id="mask-dXa4dIGniwN0LtiQO-99Y"><rect x="0" y="0" fill="#fff" width="1093.4544731535689" height="525.9937997425106"></rect><rect x="720.0030943946533" y="278.11861822616993" fill="#000" width="225.9166717529297" height="20" opacity="1"></rect></mask><g transform="translate(720.0030943946531 278.11861822616993) rotate(0 113.33135549887436 9.548378081891997)"><text x="112.95833587646484" y="0" font-family="Virgil, Segoe UI Emoji" font-size="16px" fill="#1e1e1e" text-anchor="middle" style="white-space: pre;" direction="ltr" dominant-baseline="text-before-edge">got a single-packet response</text></g><g stroke-linecap="round" transform="translate(391.2691990944421 557.3374842670194) rotate(0 75.6877463497421 76.34022692172266)"><path d="M1.73 -1.67 C40.51 0.59, 77.92 -1.1, 152.76 -0.99 M-0.25 0.69 C58.45 -0.27, 114.92 0.07, 151.48 0.55 M149.46 -0.35 C153.39 42.37, 154.41 83.42, 152.42 154.18 M152.31 0.69 C152.08 43.7, 150.49 87.69, 150.87 152.04 M150.23 151.47 C112.02 151.68, 68.85 150.94, 1.14 151.69 M151.46 153.56 C92.34 151.98, 33.94 152.21, 0.16 153.6 M-0.77 151.15 C-1.83 108.01, -0.4 60.81, 0.97 1.27 M0.61 153.28 C1.73 106.15, 1.52 59.6, -0.39 -0.09" stroke="#e03131" stroke-width="1" fill="none"></path></g><g transform="translate(400.7402782688913 583.677711188742) rotate(0 66.21666717529297 50)"><text x="66.21666717529297" y="0" font-family="Virgil, Segoe UI Emoji" font-size="16px" fill="#e03131" text-anchor="middle" style="white-space: pre;" direction="ltr" dominant-baseline="text-before-edge">- wait for all </text><text x="66.21666717529297" y="20" font-family="Virgil, Segoe UI Emoji" font-size="16px" fill="#e03131" text-anchor="middle" style="white-space: pre;" direction="ltr" dominant-baseline="text-before-edge">packets</text><text x="66.21666717529297" y="40" font-family="Virgil, Segoe UI Emoji" font-size="16px" fill="#e03131" text-anchor="middle" style="white-space: pre;" direction="ltr" dominant-baseline="text-before-edge"></text><text x="66.21666717529297" y="60" font-family="Virgil, Segoe UI Emoji" font-size="16px" fill="#e03131" text-anchor="middle" style="white-space: pre;" direction="ltr" dominant-baseline="text-before-edge">- then sort and </text><text x="66.21666717529297" y="80" font-family="Virgil, Segoe UI Emoji" font-size="16px" fill="#e03131" text-anchor="middle" style="white-space: pre;" direction="ltr" dominant-baseline="text-before-edge">parse them</text></g><g mask="url(#mask-RJUAer8HpL59mGLAW8LSj)" stroke-linecap="round"><g transform="translate(672.8584831017025 401.60817928205347) rotate(0 161.5442640568533 40.08862303545743)"><path d="M-1.18 0.03 C92.61 24.07, 185.35 45.49, 323.29 80.45 M-0.17 -0.27 C123.1 30.95, 244.73 61.33, 324.27 79.12" stroke="#1e1e1e" stroke-width="1" fill="none"></path></g><g transform="translate(672.8584831017025 401.60817928205347) rotate(0 161.5442640568533 40.08862303545743)"><path d="M292.74 82.75 C303.38 82.68, 313.02 79.89, 323 80.16 M294.24 82.31 C306.53 80.65, 316.48 79.65, 324.45 78.2" stroke="#1e1e1e" stroke-width="1" fill="none"></path></g><g transform="translate(672.8584831017025 401.60817928205347) rotate(0 161.5442640568533 40.08862303545743)"><path d="M297.4 62.77 C306.85 68.35, 315.16 71.22, 323 80.16 M298.9 62.32 C309.45 68.19, 317.63 74.74, 324.45 78.2" stroke="#1e1e1e" stroke-width="1" fill="none"></path></g></g><mask id="mask-RJUAer8HpL59mGLAW8LSj"><rect x="0" y="0" fill="#fff" width="1097.0047425090952" height="581.3584567570229"></rect><rect x="724.3066128053988" y="431.48331801953805" fill="#000" width="221.25" height="20" opacity="1"></rect></mask><g transform="translate(724.3066128053988 431.48331801953805) rotate(0 110.09613435315691 10.213484297972855)"><text x="110.625" y="0" font-family="Virgil, Segoe UI Emoji" font-size="16px" fill="#1e1e1e" text-anchor="middle" style="white-space: pre;" direction="ltr" dominant-baseline="text-before-edge">got a multi-packet response</text></g><g stroke-linecap="round" transform="translate(392.251851669428 10) rotate(0 75.6877463497421 76.34022692172266)"><path d="M1.44 1.26 C60.53 0.13, 117.7 -1.67, 150.15 1.82 M0.3 0 C54.88 0.65, 108.57 0.8, 151.61 0.68 M152.73 -1.12 C151.64 35.16, 153.52 68.61, 151.97 151.33 M150.51 0.54 C151.2 47.69, 152.79 94.18, 150.81 153.53 M152.42 151.98 C91.2 151.59, 34.11 154.27, 0.1 152.03 M151.71 153.54 C97.91 154.05, 43.11 154, -0.71 151.73 M1.52 152.95 C0.91 121.86, 2.32 88.48, -0.95 -0.2 M-0.31 153.24 C-0.45 120.06, -1.2 86.48, 0.02 0.02" stroke="#2f9e44" stroke-width="1" fill="none"></path></g><g transform="translate(405.93126290564476 76.34022692172266) rotate(0 62.00833511352539 10)"><text x="62.00833511352539" y="0" font-family="Virgil, Segoe UI Emoji" font-size="16px" fill="#2f9e44" text-anchor="middle" style="white-space: pre;" direction="ltr" dominant-baseline="text-before-edge">parse the data</text></g><g mask="url(#mask-VBvIF2m_qv-BSsQJyQvc-)" stroke-linecap="round"><g transform="translate(552.595035199468 718.3678597258454) rotate(0 111.97639551199353 53.73523054784948)"><path d="M1.61 1.13 C48.4 23.45, 94.97 43.35, 222.13 106.85 M0.4 0.18 C72.87 36.52, 145.74 70.43, 223.55 107.29" stroke="#1e1e1e" stroke-width="1" fill="none"></path></g><g transform="translate(552.595035199468 718.3678597258454) rotate(0 111.97639551199353 53.73523054784948)"><path d="M195.64 105.89 C201.09 106.77, 207.05 104.32, 221.86 107.26 M194.17 104.74 C203.38 106.07, 213.85 106.22, 223.59 107.8" stroke="#1e1e1e" stroke-width="1" fill="none"></path></g><g transform="translate(552.595035199468 718.3678597258454) rotate(0 111.97639551199353 53.73523054784948)"><path d="M204.41 87.34 C208.16 92.12, 212.29 93.56, 221.86 107.26 M202.94 86.19 C209.45 93.43, 217.09 99.57, 223.59 107.8" stroke="#1e1e1e" stroke-width="1" fill="none"></path></g></g><mask id="mask-VBvIF2m_qv-BSsQJyQvc-"><rect x="0" y="0" fill="#fff" width="876.1181762147447" height="925.2359245762009"></rect><rect x="567.1316072329851" y="759.3018921510231" fill="#000" width="194.4499969482422" height="25" opacity="1"></rect></mask><g transform="translate(567.1316072329853 759.3018921510231) rotate(0 97.4398234784764 12.801198122671735)"><text x="97.2249984741211" y="0" font-family="Virgil, Segoe UI Emoji" font-size="20px" fill="#1e1e1e" text-anchor="middle" style="white-space: pre;" direction="ltr" dominant-baseline="text-before-edge">got all the packets</text></g><g stroke-linecap="round" transform="translate(790.2261445386254 835.4281629879656) rotate(0 75.68774634974216 76.34022692172266)"><path d="M1.67 0.07 C47.43 -0.78, 92.41 0.17, 153.18 1 M-0.23 0.07 C37.48 1.14, 75.59 1.47, 151.05 0.79 M151.69 -1.3 C151.16 31.22, 153.92 65.61, 151.43 153.01 M150.99 0.19 C150.97 59.78, 151.34 120.61, 151.59 152.3 M152.4 152.03 C108.48 149.72, 63.79 150.53, 1.06 152.76 M152.03 152.06 C100.33 151.35, 48.8 152.44, 0.22 151.85 M-1.5 152.8 C-1.83 95.43, -0.37 36.2, 0.39 0.6 M-0.64 152.17 C-0.63 102.08, -0.31 50.89, -0.11 0.99" stroke="#2f9e44" stroke-width="1" fill="none"></path></g><g transform="translate(803.9055557748421 901.7683899096883) rotate(0 62.00833511352539 10)"><text x="62.00833511352539" y="0" font-family="Virgil, Segoe UI Emoji" font-size="16px" fill="#2f9e44" text-anchor="middle" style="white-space: pre;" direction="ltr" dominant-baseline="text-before-edge">parse the data</text></g><g stroke-linecap="round" transform="translate(1013.9971836116421 478.57807131631967) rotate(0 75.68774634974216 76.34022692172266)"><path d="M-0.84 -0.27 C36.91 0.41, 72.36 -3.19, 152.01 -1.69 M0.32 0.1 C60.42 1.01, 119.53 1.41, 151.91 0.51 M152.91 1.92 C151.27 30.61, 151.91 62.68, 152.73 151.61 M151.09 -0.74 C151.18 38.06, 151.4 73.94, 150.85 152.02 M150.04 154.15 C110.17 155.32, 69.48 155.5, 0 151.25 M151.65 151.74 C114.58 154.14, 78.82 152.7, 0.24 151.9 M0.34 153.81 C-2.45 91.4, 0.04 35.66, 0.73 0.74 M-0.45 153.08 C0.22 108.81, 0.58 64.5, -0.64 -0.52" stroke="#e03131" stroke-width="1" fill="none"></path></g><g transform="translate(1023.4682627860913 504.9182982380423) rotate(0 66.21666717529297 50)"><text x="66.21666717529297" y="0" font-family="Virgil, Segoe UI Emoji" font-size="16px" fill="#e03131" text-anchor="middle" style="white-space: pre;" direction="ltr" dominant-baseline="text-before-edge">- wait for all </text><text x="66.21666717529297" y="20" font-family="Virgil, Segoe UI Emoji" font-size="16px" fill="#e03131" text-anchor="middle" style="white-space: pre;" direction="ltr" dominant-baseline="text-before-edge">packets</text><text x="66.21666717529297" y="40" font-family="Virgil, Segoe UI Emoji" font-size="16px" fill="#e03131" text-anchor="middle" style="white-space: pre;" direction="ltr" dominant-baseline="text-before-edge"></text><text x="66.21666717529297" y="60" font-family="Virgil, Segoe UI Emoji" font-size="16px" fill="#e03131" text-anchor="middle" style="white-space: pre;" direction="ltr" dominant-baseline="text-before-edge">- then sort and </text><text x="66.21666717529297" y="80" font-family="Virgil, Segoe UI Emoji" font-size="16px" fill="#e03131" text-anchor="middle" style="white-space: pre;" direction="ltr" dominant-baseline="text-before-edge">parse them</text></g><g stroke-linecap="round" transform="translate(1008.6071767510872 99.86750376838836) rotate(0 75.68774634974216 76.34022692172266)"><path d="M-1.72 0.54 C30.43 -0.42, 60.5 -1.23, 151.52 -0.12 M0.74 0.93 C39.84 0.38, 78.71 1.4, 150.48 -0.63 M151.04 1.44 C153.65 62.32, 153.7 120.92, 152.84 152.22 M151.53 -0.32 C152.16 42.34, 151 86.47, 151.5 152.67 M150.22 153.4 C101.17 151.08, 54.69 154.51, 0.67 151.02 M150.98 153.43 C101.78 152.39, 53.55 153.92, -0.32 151.73 M1.81 150.71 C0.59 119.92, 1.12 87.04, 1.26 1.31 M-0.82 151.7 C0.79 92.52, 2.3 34.61, -0.06 0.91" stroke="#2f9e44" stroke-width="1" fill="none"></path></g><g transform="translate(1022.286587987304 166.20773069011102) rotate(0 62.00833511352539 10)"><text x="62.00833511352539" y="0" font-family="Virgil, Segoe UI Emoji" font-size="16px" fill="#2f9e44" text-anchor="middle" style="white-space: pre;" direction="ltr" dominant-baseline="text-before-edge">parse the data</text></g><g mask="url(#mask--oTDdcbaFxOn9PGPxrnOv)" stroke-linecap="round"><g transform="translate(1184.1229690277205 642.1907991611595) rotate(0 111.77347118211856 53.35069266989103)"><path d="M-0.64 1.61 C78.53 37.85, 158.72 74.58, 222.3 105.38 M-0.37 -0.59 C62.58 28.83, 125.36 58.86, 224.18 107.29" stroke="#1e1e1e" stroke-width="1" fill="none"></path></g><g transform="translate(1184.1229690277205 642.1907991611595) rotate(0 111.77347118211856 53.35069266989103)"><path d="M193.57 106.12 C204.01 104.84, 216.07 104.71, 222.69 105.47 M193.9 103.44 C203 104.38, 211.45 105.32, 224.99 107.81" stroke="#1e1e1e" stroke-width="1" fill="none"></path></g><g transform="translate(1184.1229690277205 642.1907991611595) rotate(0 111.77347118211856 53.35069266989103)"><path d="M202.57 87.68 C209.89 92.89, 218.78 99.27, 222.69 105.47 M202.89 84.99 C209.39 91.15, 215.31 97.26, 224.99 107.81" stroke="#1e1e1e" stroke-width="1" fill="none"></path></g></g><mask id="mask--oTDdcbaFxOn9PGPxrnOv"><rect x="0" y="0" fill="#fff" width="1507.6461100429972" height="849.058864011515"></rect><rect x="1198.6595410612376" y="683.1248315863372" fill="#000" width="194.4499969482422" height="25" opacity="1"></rect></mask><g transform="translate(1198.6595410612379 683.1248315863375) rotate(0 97.23689914860142 12.416660244713285)"><text x="97.2249984741211" y="0" font-family="Virgil, Segoe UI Emoji" font-size="20px" fill="#1e1e1e" text-anchor="middle" style="white-space: pre;" direction="ltr" dominant-baseline="text-before-edge">got all the packets</text></g><g stroke-linecap="round" transform="translate(1425.7786375294263 764.1569647228732) rotate(0 75.68774634974216 76.34022692172266)"><path d="M1.86 -1.15 C38.51 2.54, 81.21 0.12, 152.67 0.92 M0.65 0.87 C48.04 -1.03, 95.3 -0.8, 150.82 0.65 M153.22 -1.07 C150.81 56.55, 150.68 115.46, 151.92 154.64 M151.5 -0.6 C151.03 51.22, 150.42 103.79, 150.91 152.72 M149.63 151.73 C105.59 152.93, 61.89 154.61, -1.88 151.67 M151.49 153.07 C106.54 153.05, 60.85 154.07, -0.76 153.58 M-1.61 151.22 C0.28 116.72, 1.33 80.08, 0.83 -1.28 M-0.43 152.04 C0.96 112.42, 1.96 70.19, 0.57 -0.76" stroke="#2f9e44" stroke-width="1" fill="none"></path></g><g transform="translate(1439.458048765643 830.4971916445959) rotate(0 62.00833511352539 10)"><text x="62.00833511352539" y="0" font-family="Virgil, Segoe UI Emoji" font-size="16px" fill="#2f9e44" text-anchor="middle" style="white-space: pre;" direction="ltr" dominant-baseline="text-before-edge">parse the data</text></g><g stroke-linecap="round"><g transform="translate(561.1041037218893 34.06145681080852) rotate(0 645.2856194463205 195.2003236152235)"><path d="M0.54 1.02 C178.7 8.11, 853.47 -23.07, 1068.58 41.89 C1283.69 106.86, 1254.25 332.92, 1291.21 390.81 M-0.64 0.51 C177.48 7.85, 852.82 -21.42, 1068.08 43.34 C1283.34 108.11, 1253.83 331.29, 1290.92 389.08" stroke="#1e1e1e" stroke-width="1" fill="none"></path></g><g transform="translate(561.1041037218893 34.06145681080852) rotate(0 645.2856194463205 195.2003236152235)"><path d="M1275.35 365.96 C1277.85 372.54, 1284.69 377.63, 1290.18 388.84 M1273.71 364.15 C1278.81 370.3, 1281.15 376.98, 1289.99 389.99" stroke="#1e1e1e" stroke-width="1" fill="none"></path></g><g transform="translate(561.1041037218893 34.06145681080852) rotate(0 645.2856194463205 195.2003236152235)"><path d="M1295.16 360.59 C1292.33 368.7, 1293.87 375.22, 1290.18 388.84 M1293.52 358.79 C1293.92 366.03, 1291.52 373.98, 1289.99 389.99" stroke="#1e1e1e" stroke-width="1" fill="none"></path></g></g><mask></mask><g transform="translate(1809.6032251666547 434.93762011289664) rotate(0 103.25833129882812 25)"><text x="103.25833129882812" y="0" font-family="Virgil, Segoe UI Emoji" font-size="20px" fill="#1e1e1e" text-anchor="middle" style="white-space: pre;" direction="ltr" dominant-baseline="text-before-edge">Cyclomatic complexity</text><text x="103.25833129882812" y="25" font-family="Virgil, Segoe UI Emoji" font-size="20px" fill="#1e1e1e" text-anchor="middle" style="white-space: pre;" direction="ltr" dominant-baseline="text-before-edge">makes me sad.</text></g><g stroke-linecap="round"><g transform="translate(1178.853581001259 257.2827332345703) rotate(0 305.67716056368386 98.73179106936334)"><path d="M-0.62 1 C48.38 12.21, 190.95 35.29, 293.05 67.96 C395.15 100.62, 558.95 175.45, 611.98 196.99 M1.25 0.47 C50.14 11.84, 190.16 37.16, 291.86 69.55 C393.56 101.95, 558.22 173.96, 611.47 194.87" stroke="#1e1e1e" stroke-width="1" fill="none"></path></g><g transform="translate(1178.853581001259 257.2827332345703) rotate(0 305.67716056368386 98.73179106936334)"><path d="M583.15 192.86 C588.24 194.87, 595.3 193.86, 612.55 194.04 M580.75 194.09 C590.3 194.6, 597.08 193.73, 611.42 194.1" stroke="#1e1e1e" stroke-width="1" fill="none"></path></g><g transform="translate(1178.853581001259 257.2827332345703) rotate(0 305.67716056368386 98.73179106936334)"><path d="M590.96 173.88 C594.45 180, 599.8 183.14, 612.55 194.04 M588.56 175.11 C596.1 180.8, 600.75 185.12, 611.42 194.1" stroke="#1e1e1e" stroke-width="1" fill="none"></path></g></g><mask></mask><g stroke-linecap="round"><g transform="translate(1593.4321552035108 759.5552008164802) rotate(0 111.65764769623524 -137.93360000186317)"><path d="M0.51 -0.1 C18.95 -19.34, 73.35 -70.47, 110.59 -116.42 C147.84 -162.36, 205.31 -249.35, 224 -275.76 M-0.69 -1.2 C17.65 -20.72, 72.56 -72.75, 109.93 -118.34 C147.3 -163.94, 204.75 -248.88, 223.54 -274.76" stroke="#1e1e1e" stroke-width="1" fill="none"></path></g><g transform="translate(1593.4321552035108 759.5552008164802) rotate(0 111.65764769623524 -137.93360000186317)"><path d="M215.53 -244.9 C218.87 -253.38, 219.56 -263.94, 224.02 -275.45 M216.54 -245.08 C217.17 -254.14, 221 -262.66, 223 -275.72" stroke="#1e1e1e" stroke-width="1" fill="none"></path></g><g transform="translate(1593.4321552035108 759.5552008164802) rotate(0 111.65764769623524 -137.93360000186317)"><path d="M198.75 -256.72 C206.92 -261.8, 212.54 -268.88, 224.02 -275.45 M199.76 -256.9 C205.36 -262.43, 214.21 -267.42, 223 -275.72" stroke="#1e1e1e" stroke-width="1" fill="none"></path></g></g><mask></mask><g stroke-linecap="round"><g transform="translate(957.7072148780009 975.7039312516347) rotate(0 452.41287007748315 -234.6706010197463)"><path d="M1.06 -0.7 C130.2 -8.52, 623.59 30.82, 774.19 -47.76 C924.79 -126.33, 882.85 -401.26, 904.66 -472.15 M0.16 1.55 C129.26 -6, 622.95 32.96, 773.59 -46.29 C924.22 -125.54, 881.96 -403.03, 903.97 -473.97" stroke="#1e1e1e" stroke-width="1" fill="none"></path></g><g transform="translate(957.7072148780009 975.7039312516347) rotate(0 452.41287007748315 -234.6706010197463)"><path d="M910.59 -443.91 C909.83 -451.85, 909.78 -458.26, 904.09 -472.24 M910.83 -444.91 C908.59 -453.8, 907.17 -462.8, 903.64 -474.09" stroke="#1e1e1e" stroke-width="1" fill="none"></path></g><g transform="translate(957.7072148780009 975.7039312516347) rotate(0 452.41287007748315 -234.6706010197463)"><path d="M890.15 -445.68 C894.41 -453.36, 899.4 -459.33, 904.09 -472.24 M890.39 -446.68 C894.32 -455.16, 899.08 -463.63, 903.64 -474.09" stroke="#1e1e1e" stroke-width="1" fill="none"></path></g></g><mask></mask></svg>