<svg version="1.1" xmlns="http://www.w3.org/2000/svg" viewBox="0 0 1211.3188325097262 173.1797284389334" width="1211.3188325097262" height="173.1797284389334">
  <!-- svg-source:excalidraw -->
  
  <defs>
    <style class="style-fonts">
      @font-face {
        font-family: "Virgil";
        src: url("https://excalidraw.com/Virgil.woff2");
      }
      @font-face {
        font-family: "Cascadia";
        src: url("https://excalidraw.com/Cascadia.woff2");
      }
    </style>
  </defs>
  <g stroke-linecap="round" transform="translate(10 10) rotate(0 75.6877463497421 76.34022692172263)"><path d="M-1.55 1.68 C52.7 -0.07, 107.46 2.32, 152.85 1.95 M0.45 -0.86 C39.92 -1.2, 78.61 -0.87, 152.16 -0.1 M153.22 0.14 C153.37 35.96, 151.33 71.67, 150.39 151.67 M152.13 0.33 C151.66 51.77, 151.47 102.7, 150.53 153.41 M150.48 152.21 C92.78 153.83, 36.1 153.09, 1.22 150.79 M151.17 153.66 C109.68 151.85, 66.55 153.42, -0.71 153.17 M0.33 153.08 C-0.12 92.33, -1.56 31.5, 1.83 -0.62 M-0.35 152.07 C1.57 96.45, 1.95 42.48, -0.37 0.56" stroke="#f08c00" stroke-width="1" fill="none"></path></g><g transform="translate(35.12108070032809 66.34022692172272) rotate(0 50.56666564941406 20)"><text x="50.56666564941406" y="0" font-family="Virgil, Segoe UI Emoji" font-size="16px" fill="#f08c00" text-anchor="middle" style="white-space: pre;" direction="ltr" dominant-baseline="text-before-edge">you send the</text><text x="50.56666564941406" y="20" font-family="Virgil, Segoe UI Emoji" font-size="16px" fill="#f08c00" text-anchor="middle" style="white-space: pre;" direction="ltr" dominant-baseline="text-before-edge">challenge</text></g><g stroke-linecap="round" transform="translate(416.27559499217136 10.000000000000057) rotate(0 75.6877463497421 76.34022692172266)"><path d="M-0.95 0.83 C38.32 -1.68, 73.55 -0.68, 152.67 -1.33 M0.91 -0.35 C43.53 -1.03, 89.13 -0.79, 150.54 -0.48 M150.67 -1.7 C152.26 60.25, 152.88 121.9, 150.49 153.24 M152.21 0.83 C150.91 51, 150.49 101.75, 150.92 152.67 M149.44 152.07 C98.3 150.17, 43.57 153.06, -0.17 154.61 M151.33 152.53 C97.28 153.23, 42.63 153.12, -0.96 152.97 M0.69 153.46 C-1.21 96.08, -2.32 42.06, -1.98 1.1 M-0.25 153.68 C-0.29 93.26, -1.59 32.39, -0.66 0.08" stroke="#1971c2" stroke-width="1" fill="none"></path></g><g transform="translate(441.39667569249946 66.34022692172272) rotate(0 50.56666564941406 20)"><text x="50.56666564941406" y="0" font-family="Virgil, Segoe UI Emoji" font-size="16px" fill="#1971c2" text-anchor="middle" style="white-space: pre;" direction="ltr" dominant-baseline="text-before-edge">you send the</text><text x="50.56666564941406" y="20" font-family="Virgil, Segoe UI Emoji" font-size="16px" fill="#1971c2" text-anchor="middle" style="white-space: pre;" direction="ltr" dominant-baseline="text-before-edge">query</text></g><g mask="url(#mask--aSa0T9Rj_6PIdQs9fgVe)" stroke-linecap="round"><g transform="translate(172.60125447156952 85.85684894222305) rotate(0 113.9376407546253 0.32255343432922245)"><path d="M0.38 -0.67 C51.18 1.2, 103.91 1.3, 225.72 -0.49 M0.57 -0.29 C66.92 1.44, 132.02 2.3, 227.5 -0.47" stroke="#1e1e1e" stroke-width="1" fill="none"></path></g><g transform="translate(172.60125447156952 85.85684894222305) rotate(0 113.9376407546253 0.32255343432922245)"><path d="M199.96 9.57 C204.61 8.82, 211.53 6.43, 226.01 -1.04 M200.18 10.03 C208.54 7.26, 215.54 5.11, 228.09 -1.01" stroke="#1e1e1e" stroke-width="1" fill="none"></path></g><g transform="translate(172.60125447156952 85.85684894222305) rotate(0 113.9376407546253 0.32255343432922245)"><path d="M199.55 -10.94 C204.34 -6.97, 211.37 -4.63, 226.01 -1.04 M199.77 -10.49 C208.42 -7.28, 215.54 -3.46, 228.09 -1.01" stroke="#1e1e1e" stroke-width="1" fill="none"></path></g></g><mask id="mask--aSa0T9Rj_6PIdQs9fgVe"><rect x="0" y="0" fill="#fff" width="499.59399929326" height="185.85684894222305"></rect><rect x="215.12262840829374" y="65.856848942223" fill="#000" width="141.9499969482422" height="40" opacity="1"></rect></mask><g transform="translate(215.12262840829374 65.856848942223) rotate(0 71.41626681790109 20.322553434329222)"><text x="70.9749984741211" y="0" font-family="Virgil, Segoe UI Emoji" font-size="16px" fill="#1e1e1e" text-anchor="middle" style="white-space: pre;" direction="ltr" dominant-baseline="text-before-edge">got a</text><text x="70.9749984741211" y="20" font-family="Virgil, Segoe UI Emoji" font-size="16px" fill="#1e1e1e" text-anchor="middle" style="white-space: pre;" direction="ltr" dominant-baseline="text-before-edge">challenge response</text></g><g mask="url(#mask-vqWqviZoQorZePkkyAUGE)" stroke-linecap="round"><g transform="translate(580.4521310343372 87.03991877058189) rotate(0 112.86340091439166 0.1596504744682079)"><path d="M-1.08 -1.23 C82.18 1.99, 161.6 2.34, 226.62 0.21 M0.59 0.59 C79.05 0.85, 159.72 1.18, 226.81 0.69" stroke="#1e1e1e" stroke-width="1" fill="none"></path></g><g transform="translate(580.4521310343372 87.03991877058189) rotate(0 112.86340091439166 0.1596504744682079)"><path d="M197.39 9.62 C209.34 7.54, 216.88 3.98, 226.37 0.27 M199.34 11.75 C207.75 7.34, 218.72 3.84, 226.59 0.84" stroke="#1e1e1e" stroke-width="1" fill="none"></path></g><g transform="translate(580.4521310343372 87.03991877058189) rotate(0 112.86340091439166 0.1596504744682079)"><path d="M197.31 -10.91 C209.42 -5.6, 216.98 -1.78, 226.37 0.27 M199.26 -8.77 C207.67 -5.97, 218.68 -2.26, 226.59 0.84" stroke="#1e1e1e" stroke-width="1" fill="none"></path></g></g><mask id="mask-vqWqviZoQorZePkkyAUGE"><rect x="0" y="0" fill="#fff" width="907.4448758560278" height="187.60644032785734"></rect><rect x="639.6735019193036" y="67.3231795492195" fill="#000" width="108.55000305175781" height="40" opacity="1"></rect></mask><g transform="translate(639.6735019193038 67.3231795492195) rotate(0 53.64203002942514 19.87638969583054)"><text x="54.275001525878906" y="0" font-family="Virgil, Segoe UI Emoji" font-size="16px" fill="#1e1e1e" text-anchor="middle" style="white-space: pre;" direction="ltr" dominant-baseline="text-before-edge">got the query</text><text x="54.275001525878906" y="20" font-family="Virgil, Segoe UI Emoji" font-size="16px" fill="#1e1e1e" text-anchor="middle" style="white-space: pre;" direction="ltr" dominant-baseline="text-before-edge">response</text></g><g stroke-linecap="round" transform="translate(819.1631507362985 10.499274595488146) rotate(0 75.68774634974216 76.34022692172263)"><path d="M-1.08 -0.7 C49.7 -2.86, 99.77 0.23, 151.86 -1.77 M0.55 -0.32 C55.01 0.75, 109.16 0.02, 150.61 -0.69 M149.47 0.31 C151.2 40.54, 151.36 82.17, 150.06 150.68 M151.41 -0.25 C152.52 40.67, 150.63 80.82, 151.01 152.23 M153.09 154.05 C105.54 153.56, 56.58 151.01, 1.91 153.26 M150.49 151.89 C120.37 151.85, 90.81 151.84, -0.67 151.97 M0.75 151.26 C-2.96 100.31, -0.76 47.23, 0.5 1.81 M0.5 153.24 C0.7 104.27, -0.25 53.33, -0.48 -0.04" stroke="#2f9e44" stroke-width="1" fill="none"></path></g><g transform="translate(832.8425619725152 76.83950151721075) rotate(0 62.00833511352539 10)"><text x="62.00833511352539" y="0" font-family="Virgil, Segoe UI Emoji" font-size="16px" fill="#2f9e44" text-anchor="middle" style="white-space: pre;" direction="ltr" dominant-baseline="text-before-edge">parse the data</text></g><g stroke-linecap="round"><g transform="translate(984.2722814097368 87.31676660112527) rotate(0 42.25911360000737 -0.09859510915237024)"><path d="M0.5 1.28 C27.23 -1.46, 57.72 -2.3, 84.04 -0.61 M0.25 -0.02 C28.58 0.34, 58.2 0.93, 84.27 -1.02" stroke="#1e1e1e" stroke-width="1" fill="none"></path></g><g transform="translate(984.2722814097368 87.31676660112527) rotate(0 42.25911360000737 -0.09859510915237024)"><path d="M57.09 11.84 C64.56 5.39, 75.78 0.72, 84.78 -1.15 M56.84 10.53 C65.94 6.62, 76.22 3.37, 85.02 -1.56" stroke="#1e1e1e" stroke-width="1" fill="none"></path></g><g transform="translate(984.2722814097368 87.31676660112527) rotate(0 42.25911360000737 -0.09859510915237024)"><path d="M56.13 -8.66 C63.91 -8.03, 75.46 -5.63, 84.78 -1.15 M55.88 -9.96 C65.14 -6.77, 75.76 -2.93, 85.02 -1.56" stroke="#1e1e1e" stroke-width="1" fill="none"></path></g></g><mask></mask><g transform="translate(1085.4854966332614 74.51297576735402) rotate(0 57.91666793823242 12.5)"><text x="0" y="0" font-family="Virgil, Segoe UI Emoji" font-size="20px" fill="#1e1e1e" text-anchor="start" style="white-space: pre;" direction="ltr" dominant-baseline="text-before-edge">Life is good</text></g></svg>